# This file uses centimeters as units for non-parametric coordinates.

mtllib TUNAL.mtl
g default
v -7.691725 3.373762 -3.227518
v -7.691725 0.578649 -1.613759
v -7.691725 0.578648 1.613759
v -7.691725 3.373761 3.227518
v -7.691725 6.168874 1.613759
v -7.691725 6.168874 -1.613759
v -7.691724 3.373762 -3.934625
v -7.691724 -0.033723 -1.967313
v -7.691724 -0.033724 1.967312
v -7.691724 3.373761 3.934625
v -7.691724 6.781246 1.967312
v -7.691724 6.781246 -1.967312
v 7.691726 3.373762 -3.934625
v 7.691726 -0.033723 -1.967313
v 7.691726 -0.033724 1.967312
v 7.691726 3.373761 3.934625
v 7.691726 6.781246 1.967312
v 7.691726 6.781246 -1.967312
v 7.691723 3.373762 -3.227518
v 7.691723 0.578649 -1.613759
v 7.691723 0.578648 1.613759
v 7.691723 3.373760 3.227518
v 7.691723 6.168874 1.613759
v 7.691723 6.168874 -1.613759
v 4.281889 3.373762 -3.227518
v 4.281889 0.578649 -1.613759
v 4.281889 0.578648 1.613759
v 4.281889 3.373761 3.227518
v 4.281889 6.168874 1.613759
v 4.281889 6.168874 -1.613759
v -2.282920 3.373762 -3.227518
v -2.282920 0.578649 -1.613759
v -2.282920 0.578648 1.613759
v -2.282920 3.373761 3.227518
v -2.282920 6.168874 1.613759
v -2.282920 6.168874 -1.613759
vt 0.497593 0.425689
vt 0.499057 0.495650
vt 0.460707 0.500074
vt 0.462251 0.414824
vt 0.496100 0.355742
vt 0.463856 0.329528
vt 0.503514 0.705483
vt 0.465483 0.244263
vt 0.502043 0.635544
vt 0.457452 0.670605
vt 0.500550 0.565597
vt 0.459026 0.585332
vt 0.235047 0.073065
vt 0.191810 -0.000451
vt 0.106525 0.000235
vt 0.064476 0.074437
vt 0.107712 0.147953
vt 0.192998 0.147267
vt 0.832456 0.488560
vt 0.830962 0.418613
vt 0.829469 0.348667
vt 0.827998 0.278727
vt 0.835413 0.628468
vt 0.833920 0.558521
vt 0.758551 0.490132
vt 0.757058 0.420185
vt 0.755587 0.350246
vt 0.763009 0.699965
vt 0.761516 0.630018
vt 0.760045 0.560079
vt 0.616295 0.493145
vt 0.614802 0.423198
vt 0.613309 0.353252
vt 0.620752 0.702978
vt 0.619259 0.633031
vt 0.617766 0.563085
vt 0.125634 0.579057
vt 0.127262 0.493792
vt 0.124060 0.664330
vt 0.132061 0.238011
vt 0.130464 0.323253
vt 0.128859 0.408549
vt 0.185228 0.134055
vt 0.219720 0.073188
vt 0.115269 0.134618
vt 0.079803 0.074313
vt 0.114295 0.013447
vt 0.184253 0.012884
vt 0.411105 0.159467
vt 0.325824 0.158382
vt 0.454685 0.086154
vt 0.412984 0.011756
vt 0.327703 0.010671
vt 0.284123 0.083984
vt 0.403610 0.146097
vt 0.333656 0.145207
vt 0.439359 0.085959
vt 0.405152 0.024931
vt 0.335197 0.024041
vt 0.299449 0.084179
vt 0.611838 0.283312
vt 0.494607 0.285796
vt 0.754094 0.280299
vt 0.836906 0.698415
vt 0.455848 0.755901
vt 0.122455 0.749626
vn -1.000000 -0.000000 -0.000001
vn -1.000000 -0.000000 -0.000001
vn -1.000000 -0.000000 -0.000001
vn -1.000000 -0.000000 -0.000001
vn -1.000000 -0.000001 -0.000000
vn -1.000000 -0.000001 -0.000000
vn -1.000000 -0.000001 -0.000000
vn -1.000000 -0.000001 -0.000000
vn -1.000000 -0.000000 0.000001
vn -1.000000 -0.000000 0.000001
vn -1.000000 -0.000000 0.000001
vn -1.000000 -0.000000 0.000001
vn -1.000000 0.000000 0.000001
vn -1.000000 0.000000 0.000001
vn -1.000000 0.000000 0.000001
vn -1.000000 0.000000 0.000001
vn -1.000000 0.000001 -0.000000
vn -1.000000 0.000001 -0.000000
vn -1.000000 0.000001 -0.000000
vn -1.000000 0.000001 -0.000000
vn -1.000000 0.000001 -0.000000
vn -1.000000 0.000001 -0.000000
vn -1.000000 0.000001 -0.000000
vn -1.000000 0.000001 -0.000000
vn 0.000000 -0.500000 -0.866026
vn 0.000000 -0.500000 -0.866026
vn 0.000000 -0.500000 -0.866026
vn 0.000000 -0.500000 -0.866026
vn -0.000000 -1.000000 -0.000000
vn -0.000000 -1.000000 -0.000000
vn -0.000000 -1.000000 -0.000000
vn -0.000000 -1.000000 -0.000000
vn 0.000000 -0.500000 0.866025
vn 0.000000 -0.500000 0.866025
vn 0.000000 -0.500000 0.866025
vn 0.000000 -0.500000 0.866025
vn 0.000000 0.500000 0.866026
vn 0.000000 0.500000 0.866026
vn 0.000000 0.500000 0.866026
vn 0.000000 0.500000 0.866026
vn 0.000000 1.000000 -0.000000
vn 0.000000 1.000000 -0.000000
vn 0.000000 1.000000 -0.000000
vn 0.000000 1.000000 -0.000000
vn 0.000000 0.500000 -0.866025
vn 0.000000 0.500000 -0.866025
vn 0.000000 0.500000 -0.866025
vn 0.000000 0.500000 -0.866025
vn 1.000000 0.000002 0.000004
vn 1.000000 0.000002 0.000004
vn 1.000000 0.000002 0.000004
vn 1.000000 0.000002 0.000004
vn 1.000000 0.000005 -0.000000
vn 1.000000 0.000005 -0.000000
vn 1.000000 0.000005 -0.000000
vn 1.000000 0.000005 -0.000000
vn 1.000000 0.000002 -0.000005
vn 1.000000 0.000002 -0.000005
vn 1.000000 0.000002 -0.000005
vn 1.000000 0.000002 -0.000005
vn 1.000000 -0.000003 -0.000004
vn 1.000000 -0.000003 -0.000004
vn 1.000000 -0.000003 -0.000004
vn 1.000000 -0.000003 -0.000004
vn 1.000000 -0.000005 -0.000000
vn 1.000000 -0.000005 -0.000000
vn 1.000000 -0.000005 -0.000000
vn 1.000000 -0.000005 -0.000000
vn 1.000000 -0.000003 0.000005
vn 1.000000 -0.000003 0.000005
vn 1.000000 -0.000003 0.000005
vn 1.000000 -0.000003 0.000005
vn -0.000000 0.500000 0.866026
vn -0.000000 0.500000 0.866026
vn -0.000000 0.500000 0.866026
vn -0.000000 0.500000 0.866026
vn -0.000000 1.000000 0.000000
vn -0.000000 1.000000 0.000000
vn -0.000000 1.000000 0.000000
vn -0.000000 1.000000 0.000000
vn -0.000000 0.500000 -0.866025
vn -0.000000 0.500000 -0.866025
vn -0.000000 0.500000 -0.866025
vn -0.000000 0.500000 -0.866025
vn -0.000000 -0.500000 -0.866026
vn -0.000000 -0.500000 -0.866026
vn -0.000000 -0.500000 -0.866026
vn -0.000000 -0.500000 -0.866026
vn 0.000000 -1.000000 0.000000
vn 0.000000 -1.000000 0.000000
vn 0.000000 -1.000000 0.000000
vn 0.000000 -1.000000 0.000000
vn -0.000000 -0.500000 0.866025
vn -0.000000 -0.500000 0.866025
vn -0.000000 -0.500000 0.866025
vn -0.000000 -0.500000 0.866025
vn 0.000000 0.500000 0.866026
vn 0.000000 0.500000 0.866026
vn 0.000000 1.000000 0.000000
vn 0.000000 1.000000 0.000000
vn -0.000000 0.500000 -0.866025
vn -0.000000 0.500000 -0.866025
vn -0.000000 -0.500000 -0.866026
vn -0.000000 -0.500000 -0.866026
vn -0.000000 -1.000000 0.000000
vn -0.000000 -1.000000 0.000000
vn 0.000000 -0.500000 0.866025
vn 0.000000 -0.500000 0.866025
vn 0.000000 0.500000 0.866026
vn 0.000000 0.500000 0.866026
vn 0.000000 1.000000 0.000000
vn 0.000000 1.000000 0.000000
vn -0.000000 0.500000 -0.866025
vn -0.000000 0.500000 -0.866025
vn -0.000000 -0.500000 -0.866026
vn -0.000000 -0.500000 -0.866026
vn -0.000000 -1.000000 0.000000
vn -0.000000 -1.000000 0.000000
vn 0.000000 -0.500000 0.866025
vn 0.000000 -0.500000 0.866025
s off
g pTorus1
usemtl initialShadingGroup
f 2/60/1 1/56/2 7/50/3 8/54/4
f 3/59/5 2/60/6 8/54/7 9/53/8
f 4/58/9 3/59/10 9/53/11 10/52/12
f 5/57/13 4/58/14 10/52/15 11/51/16
f 6/55/17 5/57/18 11/51/19 12/49/20
f 1/56/21 6/55/22 12/49/23 7/50/24
f 8/4/25 7/3/26 13/38/27 14/42/28
f 9/6/29 8/4/30 14/42/31 15/41/32
f 10/8/33 9/6/34 15/41/35 16/40/36
f 11/10/37 10/65/38 16/66/39 17/39/40
f 12/12/41 11/10/42 17/39/43 18/37/44
f 7/3/45 12/12/46 18/37/47 13/38/48
f 14/14/49 13/13/50 19/44/51 20/48/52
f 15/15/53 14/14/54 20/48/55 21/47/56
f 16/16/57 15/15/58 21/47/59 22/46/60
f 17/17/61 16/16/62 22/46/63 23/45/64
f 18/18/65 17/17/66 23/45/67 24/43/68
f 13/13/69 18/18/70 24/43/71 19/44/72
s 1
f 20/20/73 19/19/74 25/25/75 26/26/76
s 2
f 21/21/77 20/20/78 26/26/79 27/27/80
s 3
f 22/22/81 21/21/82 27/27/83 28/63/84
s 4
f 23/23/85 22/64/86 28/28/87 29/29/88
s 5
f 24/24/89 23/23/90 29/29/91 30/30/92
s 6
f 19/19/93 24/24/94 30/30/95 25/25/96
s 1
f 26/26/76 25/25/75 31/31/97 32/32/98
s 2
f 27/27/80 26/26/79 32/32/99 33/33/100
s 3
f 28/63/84 27/27/83 33/33/101 34/61/102
s 4
f 29/29/88 28/28/87 34/34/103 35/35/104
s 5
f 30/30/92 29/29/91 35/35/105 36/36/106
s 6
f 25/25/96 30/30/95 36/36/107 31/31/108
s 1
f 32/32/98 31/31/97 1/2/109 2/1/110
s 2
f 33/33/100 32/32/99 2/1/111 3/5/112
s 3
f 34/61/102 33/33/101 3/5/113 4/62/114
s 4
f 35/35/104 34/34/103 4/7/115 5/9/116
s 5
f 36/36/106 35/35/105 5/9/117 6/11/118
s 6
f 31/31/108 36/36/107 6/11/119 1/2/120
